<?xml version="1.0" standalone="no"?>
<!DOCTYPE svg PUBLIC "-//W3C//DTD SVG 20010904//EN"
 "http://www.w3.org/TR/2001/REC-SVG-20010904/DTD/svg10.dtd">
<svg version="1.0" xmlns="http://www.w3.org/2000/svg"
 width="560.000000pt" height="560.000000pt" viewBox="0 0 560.000000 560.000000"
 preserveAspectRatio="xMidYMid meet">
<metadata>
Created by potrace 1.14, written by Peter Selinger 2001-2017
</metadata>
<g transform="translate(0.000000,560.000000) scale(0.100000,-0.100000)"
fill="#000000" stroke="none">
<path d="M1885 3869 c-206 -89 -560 -278 -765 -409 -227 -144 -488 -338 -694
-514 -158 -135 -329 -296 -323 -303 2 -1 30 6 63 16 185 59 492 157 644 205
96 30 202 64 235 74 33 11 134 43 225 72 91 29 192 61 224 71 33 10 60 18 61
17 5 -5 -163 -500 -172 -508 -4 -3 -96 -76 -203 -162 -107 -85 -297 -235 -421
-334 -124 -98 -241 -190 -259 -204 -49 -37 -70 -57 -70 -64 0 -4 3 -5 8 -3 4
3 43 8 87 12 44 3 98 8 120 10 22 2 76 7 120 10 44 3 91 8 105 10 14 2 63 7
110 11 47 3 99 8 115 9 17 2 66 6 110 10 44 3 96 8 115 10 54 6 137 14 225 20
44 4 91 8 105 10 14 2 61 7 105 10 137 11 254 21 345 30 50 5 126 12 210 19
30 3 87 8 125 12 39 4 81 7 94 8 l24 0 -24 19 c-19 15 -487 298 -564 341 -125
70 -364 220 -360 226 3 5 132 107 288 227 155 120 289 223 297 230 8 7 139
107 290 224 151 116 279 215 285 220 5 5 -13 3 -40 -5 -28 -8 -167 -49 -310
-91 -143 -42 -344 -100 -446 -130 -102 -30 -190 -55 -196 -55 -8 0 57 226 166
575 39 125 45 117 -54 74z"/>
<path d="M4258 3812 l-26 -3 0 -910 0 -909 164 0 c149 0 164 2 165 18 0 9 1
145 1 301 l1 284 45 -49 c125 -134 322 -347 437 -473 28 -31 55 -61 62 -68 9
-10 59 -13 217 -11 l205 3 -41 45 c-23 25 -67 72 -97 105 -31 33 -105 114
-166 179 -60 66 -114 124 -120 130 -5 6 -54 59 -108 118 l-98 107 38 43 c21
24 40 45 43 48 3 3 41 46 85 95 44 50 82 92 85 95 3 3 39 43 80 90 41 47 86
97 100 111 33 34 114 130 118 138 1 4 -89 6 -201 6 l-204 0 -34 -40 c-45 -52
-353 -395 -415 -462 l-31 -34 1 520 1 521 -60 1 c-33 0 -96 1 -140 2 -44 1
-92 1 -107 -1z"/>
<path d="M3089 3325 c-204 -43 -377 -203 -450 -415 -24 -66 -28 -86 -36 -175
-8 -89 -8 -96 0 -175 35 -347 309 -607 632 -601 126 2 232 40 333 120 28 22
53 37 55 33 2 -4 3 -33 2 -64 l-2 -58 167 0 167 0 0 658 0 657 -163 0 c-104 0
-165 -3 -165 -10 -1 -5 -3 -32 -4 -60 -1 -27 -3 -53 -4 -58 0 -4 -27 14 -58
39 -59 49 -127 83 -204 105 -60 16 -202 19 -270 4z m317 -313 c82 -26 160
-100 201 -189 35 -76 41 -216 13 -305 -19 -63 -63 -134 -104 -171 -42 -36
-142 -78 -199 -81 -155 -10 -281 62 -349 202 -32 64 -33 72 -33 182 0 104 3
121 27 172 80 172 261 249 444 190z"/>
</g>
</svg>
